<svg id="Layer_1" data-name="Layer 1" xmlns="http://www.w3.org/2000/svg" viewBox="0 0 195.13 263"><title>globe</title><path d="M49.22,64.08a49.44,49.44,0,0,0-11.77,68.84c6.63,9.36,15,14.08,22.33,17.45,21.78,10,90.77,17.41,104.57,15.15a7.76,7.76,0,0,0,5.56-3.94c6.72-12.26,22.71-79.78,20.48-103.66-.75-8-2.41-17.5-9-26.86a49.45,49.45,0,0,0-68.85-11.78,51.68,51.68,0,0,0-21.28,37A51.64,51.64,0,0,0,49.22,64.08ZM68,85.7,69.71,85l.89,2.34L69.36,89,66.9,87.63ZM66.14,100a5,5,0,1,1-5-5A5,5,0,0,1,66.14,100ZM63.36,73.77l-2.61,1.7-.22-.21C61.45,74.71,62.4,74.23,63.36,73.77Zm-3.8,8c.12-.08,1,1.36,1,1.36l-2.93,2.37-1.08-.28L58.24,83S59.44,81.82,59.56,81.73ZM55,79.89l2.23-1.58.69,1,0,1.31L54.8,82.77l-.88-1.25-.08-.12,1.36-1Zm11.3,56.37c-7.41-3.42-11.85-6.65-15.41-11.3-.58-1.94-5.32-10-5.74-12L48,117.15l.31-4.29q-.39-3-.53-6l.9,1.07-.36,5L48,117.15l1.38,1.95,2.52,3.55,3.47-.59,3.5,4.94,5.49,2.49,2.25-1.13-.77-1.64-5-2-3-3.25,1.4-1,3.2,3.27,7,2.59.26,2.26,4.57,1.8,6.4-2.51L80,127l2.4-1.23.89,1.7,1.94-.9,3.15-1.15,6.75,1.61,5-3,3.22,3.56-1.65,4.59,2.31,3.59,1,2.45L114,140.8l1.8,1.77s2-.74,2.25-.89,5.79,0,5.79,0l4.79,6.77C105.77,146.07,77.9,141.61,66.29,136.26ZM81.86,90.78l1.29-1.22L84,90.77l-.26,1.53-2,1.4-.65-1.58.88-.74Zm.37-1.53-1,1-1.46-2.06,2.1-1.49L82.74,88ZM80.45,87l-1-1.48,2.11.26Zm-.67.47-3.73,2.64-1.68.61-.28-1.15,1.27-2,2.45-1.73.53.74.53-.38Zm-1.27,1.66,0,5.57-1.5.19-.87-1.73.34-2.57Zm96.18-43.6,1,.89-1-.52ZM159.64,35.17c1.23.64,2.44,1.32,3.63,2l-.66.43-1.09,1-2-2.77Zm-14.88-5.91.06,2.69-4.31,3-.9-.71L141.33,31l-2.14-3Q142,28.49,144.76,29.26ZM89.1,86.79l2.48-5.15-.57,0L91.93,77l1.2-.45.88.25.22-1.9.18-.3-1.26.65-1.45.44-.79-1.12.26-1,1-.73a35.42,35.42,0,0,1,3.38,1.54,8.41,8.41,0,0,0,1.58.6l.35-.26.93-.41.16.93a7.76,7.76,0,0,0,8.29-8.86A36.15,36.15,0,0,1,121.49,32a33.66,33.66,0,0,1,10.68-5l.19,1.79-2.08,3.16L130,34.05l1.37,1.34,1.63-.85,2.48,1.61,1.84-2.85,2.54,2.7-.77.54-2.33,1.18-2.05,2.05v4.78l-2.88,2.8,1.49,3.09,1.59-.64.87,2.06-3.66,1.62-2.49,2.73.53,2.08,2.95,3.07,2.3-.41,2.88-2.07,1.83-1.56-.5-2,.24-6.13,2.3-1,.72-3.2,1.36,1.14,7.2-.16,0,1.22-2.28,1.44,1.69.6,1.56-.66,1.12-1.78-1.38-1.89.45-.85-1-.2-4.54.49-2.56-1.8,2.71-1.92,1.47.25,3.74.36,1.82,2.35,4.23.87-1.59-4.16,1-2.09,2.35,2.65,2.9.64,3.22-2.36c1.11.73,2.2,1.51,3.27,2.3.65.48,1.29,1,1.92,1.45l-.12.56-.46.32L166.44,47l-4.64-.11-3,2.57,1.38,2-1,.71h-1.64L151,54.6,148.5,51l-6.62,5.5-1.35,2.71-2.78,2-1.46.83-2,4.27,2.5,3.53-3.38,9.86,2.08,1.72,1.4-1,1.07,2.29-.73,1.06,3.69,5.33,10.78,2.57,2.6-1.84-.14-.52L158.78,86l.46-2.19,2.65-1.88,2.48.43L168.6,80l3.2,5.62,1.13.53c-3.65,23.69-11,53.07-15.09,64.32-2.2,0-5-.06-8.29-.23l.82-1.48-.37-3.16.37-7.74-3.64-3.27-.28-2.92,3.66-2.42,1.06-3.62-4.54-8.06.27-5.29-1.08-2.51-3,.94-3.48-1.5L133.81,113l-5.53,1.42-2.41-3L122.62,110l-4,2.73-4.81-2-2.72.44.67,1.17-3.53,2.82-2.68-.92-4.39,1.94-.58,5.89L95,124.75l-4.33-5.35-4.08,1.95-.49-3.79-1.53-1.28-2.52,6.57-3.26,1.76L76.06,123,75,120.14l-.5-4.23L77,111.28l7.36-5.21,1.57,2.26,3.52-.65L86.47,104l.55-3.27,2.06-5.25-1-2Zm-1.89,1.07-2,1.41-1.1-.4-.8-1.13.16-.11,2.86-1Zm-3.86-1.57.14-1,1.37-.09-.31,1.18ZM84,70.71,84.93,72l-2.57,3.4.64,3.7-1.28,1.25-2.5-3.54L75.8,78.61l-2.27.08-2.25-1.84,2.82-6.23A36.48,36.48,0,0,1,84,70.71Z" fill="#fff"/><circle cx="61.14" cy="100" r="1" fill="#fff"/><polygon points="124.59 49.8 126.04 48.77 127.32 45.14 126.47 43.71 124.91 44.04 123.5 45.62 123.67 48.5 124.59 49.8" fill="#fff"/><polygon points="124.99 43.21 126.45 43.19 128.48 43.08 129.32 43.99 128.03 45.38 129.35 47.67 131.17 46.39 133.41 44.45 133.61 42.09 131.92 42.51 130.61 42.19 128.27 41.2 125.99 39.07 124.24 40.94 124.29 42.22 124.99 43.21" fill="#fff"/><path d="M97.12,76.54l-1.79,1.27.66.92.42-.3.38.41,1-.87.38-.91-.43-1,.83-.7v0a7,7,0,0,1-1.44-.26l-.35.26Z" fill="#fff"/><polygon points="95.18 80.19 94.67 79.19 93.46 79.13 93.39 80.27 93.96 81.22 95.18 80.19" fill="#fff"/><path d="M193.71,189.44l-9.92-14.31a8,8,0,0,0-6.58-3.44,8,8,0,0,0-6.57,12.56l4.75,6.84a103.82,103.82,0,0,1-52.86,15,8.82,8.82,0,0,0-1.16-.07l-.56,0a104.18,104.18,0,0,1-64-185.9l7.76,11.34a8,8,0,1,0,13.2-9l-13-19A8,8,0,0,0,58.14,0a7.91,7.91,0,0,0-4,1.11A8.26,8.26,0,0,0,52,2.18a121.38,121.38,0,0,0,60.81,220.76v11.95c-22,2.09-44.35,11-45.32,11.35a8.64,8.64,0,0,0,3.17,16.68h49.63a8.62,8.62,0,0,0,1.14.08,8.74,8.74,0,0,0,1.14-.08h49.69a8.64,8.64,0,0,0,3.17-16.67c-1-.4-23.31-9.27-45.33-11.36V223a120.89,120.89,0,0,0,60.73-21.32,8.58,8.58,0,0,0,2.92-3.21A8,8,0,0,0,193.71,189.44Z" fill="#fff"/></svg>