<svg id="icons" xmlns="http://www.w3.org/2000/svg" viewBox="0 0 30 30"><title>icon-hand-heart-smile-o</title><g id="hand-heart"><g id="heart"><path d="M11,8.67a.67.67,0,0,0-.92.19,1.07,1.07,0,0,1-1.47.33,1,1,0,0,1-.31-.31.66.66,0,0,0-1.13.69l0,.06a2.38,2.38,0,0,0,4-.05A.66.66,0,0,0,11,8.67Z"/><path d="M12.5,2.05A4.39,4.39,0,0,0,9.19,3.59,4.4,4.4,0,0,0,5.88,2.06,4.22,4.22,0,0,0,1.67,6.27a4.49,4.49,0,0,0,.69,2.31c1,1.77,5.46,5.69,6.53,6.21a.66.66,0,0,0,.58,0A28.71,28.71,0,0,0,16,8.58a4.48,4.48,0,0,0,.68-2.31A4.22,4.22,0,0,0,12.5,2.05Zm2.38,5.87h0c-.84,1.45-4.45,4.65-5.68,5.5C8,12.57,4.35,9.37,3.51,7.92A3.11,3.11,0,0,1,3,6.27,2.88,2.88,0,0,1,5.88,3.38,3.08,3.08,0,0,1,8.62,5.06a.66.66,0,0,0,.89.3.7.7,0,0,0,.29-.3,3.07,3.07,0,0,1,2.71-1.68A2.89,2.89,0,0,1,15.4,6.27,3,3,0,0,1,14.88,7.92Z"/></g><path id="hand" d="M28.36,18.69h-3.6l-.19-.3A6,6,0,0,0,23,16.51a5.68,5.68,0,0,0-2.82-1.06H12.34a.68.68,0,0,0-.71.66.67.67,0,0,0,.09.34C13.3,19.61,15,19.87,17,19.87h.81a2.12,2.12,0,0,1-2.17,1.31h-.78a6.35,6.35,0,0,1-2.71-.86c-1-.78-2.24-1.8-3.46-2.79-.84-.68-1.66-1.36-2.39-1.92a3.73,3.73,0,0,0-5.08,0,.69.69,0,0,0,0,1h0l9.73,9.73c1,1,4,1.5,4.56,1.59H28.33a.68.68,0,0,0,.68-.69V19.4A.68.68,0,0,0,28.36,18.69Zm-4.69,7.86h-8c-1.25-.17-3.21-.65-3.73-1.17h0L2.76,16.23a2.4,2.4,0,0,1,2.66.45c.7.58,1.53,1.24,2.37,1.92,1.22,1,2.48,2,3.48,2.8a7.35,7.35,0,0,0,3.55,1.15h.78a3.55,3.55,0,0,0,3.76-3.36.68.68,0,0,0-.64-.72H17a3.4,3.4,0,0,1-3.42-1.64h6.58a4.08,4.08,0,0,1,2,.78,4.65,4.65,0,0,1,1.28,1.51l.29.46Zm1.41,0V20.07h2.54l0,6.49Z"/></g><g id="heart-2" data-name="heart"><path d="M11,8.74a.68.68,0,0,0-.92.2,1.07,1.07,0,0,1-1.47.33A1.14,1.14,0,0,1,8.31,9a.66.66,0,0,0-1.13.69l0,.06a2.38,2.38,0,0,0,4-.05A.67.67,0,0,0,11,8.74Z"/><path d="M12.5,2.13A4.39,4.39,0,0,0,9.19,3.67,4.4,4.4,0,0,0,5.88,2.14,4.22,4.22,0,0,0,1.67,6.35a4.52,4.52,0,0,0,.69,2.31c1,1.77,5.46,5.69,6.53,6.21a.66.66,0,0,0,.58,0A28.71,28.71,0,0,0,16,8.66a4.51,4.51,0,0,0,.68-2.31A4.22,4.22,0,0,0,12.5,2.13ZM14.88,8h0c-.84,1.45-4.45,4.65-5.68,5.5C8,12.65,4.35,9.45,3.51,8A3.14,3.14,0,0,1,3,6.35,2.88,2.88,0,0,1,5.88,3.46,3.08,3.08,0,0,1,8.62,5.14a.65.65,0,0,0,.89.29.63.63,0,0,0,.29-.29,3.07,3.07,0,0,1,2.71-1.68A2.89,2.89,0,0,1,15.4,6.35,3.06,3.06,0,0,1,14.88,8Z"/></g></svg>