<svg id="icons" xmlns="http://www.w3.org/2000/svg" viewBox="0 0 30 30"><title>icon-mail-o</title><path id="circle" d="M15,1A14,14,0,1,0,29,15,14,14,0,0,0,15,1Zm0,25.25A11.25,11.25,0,1,1,26.25,15,11.25,11.25,0,0,1,15,26.25Z"/><g id="envelope"><path d="M9.54,11.56,14.4,14.5a1.13,1.13,0,0,0,.59.15,1.11,1.11,0,0,0,.58-.15l4.87-2.94c.31-.19.61-.94,0-.94H9.5C8.92,10.62,9.22,11.37,9.54,11.56Z"/><path d="M20.58,13.17l-5,2.94a1,1,0,0,1-.58.14,1,1,0,0,1-.59-.14l-5-2.94c-.26-.15-.25,0-.25.16v5.32c0,.3.36.73.64.73H20.19c.28,0,.64-.43.64-.73V13.33C20.83,13.19,20.84,13,20.58,13.17Z"/></g></svg>