<svg id="icons" xmlns="http://www.w3.org/2000/svg" viewBox="0 0 36 30"><title>icon-heart-smile-o</title><g id="smile"><path d="M25.23,1A9.6,9.6,0,0,0,18,4.35,9.6,9.6,0,0,0,10.77,1a9.22,9.22,0,0,0-9.21,9.21,9.78,9.78,0,0,0,1.52,5.07C5.31,19.15,15,27.71,17.36,28.85a1.44,1.44,0,0,0,1.28,0c2.34-1.14,12.05-9.7,14.28-13.57a9.78,9.78,0,0,0,1.52-5.07A9.22,9.22,0,0,0,25.23,1Zm5.18,12.83C28.58,17,20.68,24,18,25.85,15.32,24,7.42,17,5.59,13.83a6.79,6.79,0,0,1-1.14-3.62A6.32,6.32,0,0,1,10.77,3.9a6.74,6.74,0,0,1,5.94,3.68,1.45,1.45,0,0,0,2.58,0A6.74,6.74,0,0,1,25.23,3.9a6.32,6.32,0,0,1,6.32,6.31A6.79,6.79,0,0,1,30.41,13.83Z"/><path d="M21.94,15.46a1.45,1.45,0,0,0-2,.43,2.32,2.32,0,0,1-3.88,0,1.45,1.45,0,0,0-2.4,1.62,5.22,5.22,0,0,0,8.72-.1A1.45,1.45,0,0,0,21.94,15.46Z"/></g></svg>