<svg id="icons" xmlns="http://www.w3.org/2000/svg" viewBox="0 0 30 30"><title>icon-twitter-o</title><path id="circle" d="M15,1A14,14,0,1,0,29,15,14,14,0,0,0,15,1Zm0,25.25A11.25,11.25,0,1,1,26.25,15,11.25,11.25,0,0,1,15,26.25Z"/><path id="bird" d="M20.69,12.47c0,.12,0,.24,0,.35A7.84,7.84,0,0,1,8.63,19.43a4.87,4.87,0,0,0,.66,0,5.51,5.51,0,0,0,3.42-1.18,2.76,2.76,0,0,1-2.57-1.91,3,3,0,0,0,.52,0,2.84,2.84,0,0,0,.72-.09,2.77,2.77,0,0,1-2.21-2.71v0a2.78,2.78,0,0,0,1.25.35,2.77,2.77,0,0,1-1.23-2.3,2.73,2.73,0,0,1,.38-1.39,7.84,7.84,0,0,0,5.68,2.89,2.7,2.7,0,0,1-.07-.63A2.76,2.76,0,0,1,20,10.62,5.53,5.53,0,0,0,21.7,10a2.83,2.83,0,0,1-1.21,1.53A5.52,5.52,0,0,0,22.07,11,5.68,5.68,0,0,1,20.69,12.47Z"/></svg>