<svg id="icons" xmlns="http://www.w3.org/2000/svg" viewBox="0 0 30 30"><title>icon-hand-heart</title><path id="heart" d="M8.89,14.79a.66.66,0,0,0,.58,0A28.71,28.71,0,0,0,16,8.58a4.48,4.48,0,0,0,.68-2.31A4.23,4.23,0,0,0,12.5,2.05,4.39,4.39,0,0,0,9.19,3.59,4.4,4.4,0,0,0,5.88,2.06,4.22,4.22,0,0,0,1.67,6.27a4.49,4.49,0,0,0,.69,2.31C3.38,10.35,7.82,14.27,8.89,14.79Z"/><path id="hand" d="M28.36,18.69h-3.6l-.19-.3A6,6,0,0,0,23,16.51a5.68,5.68,0,0,0-2.82-1.06H12.34a.68.68,0,0,0-.71.66.67.67,0,0,0,.09.34C13.3,19.61,15,19.87,17,19.87h.81a2.12,2.12,0,0,1-2.17,1.31h-.78a6.35,6.35,0,0,1-2.71-.86c-1-.78-2.24-1.8-3.46-2.79-.84-.68-1.66-1.36-2.39-1.92a3.73,3.73,0,0,0-5.08,0,.69.69,0,0,0,0,1h0l9.73,9.73c1,1,4,1.5,4.56,1.59H28.33a.68.68,0,0,0,.68-.69V19.4A.68.68,0,0,0,28.36,18.69Zm-4.69,7.86h-8c-1.25-.17-3.21-.65-3.73-1.17h0L2.76,16.23a2.4,2.4,0,0,1,2.66.45c.7.58,1.53,1.24,2.37,1.92,1.22,1,2.48,2,3.48,2.8a7.35,7.35,0,0,0,3.55,1.15h.78a3.55,3.55,0,0,0,3.76-3.36.68.68,0,0,0-.64-.72H17a3.4,3.4,0,0,1-3.42-1.64h6.58a4.08,4.08,0,0,1,2,.78,4.65,4.65,0,0,1,1.28,1.51l.29.46Zm1.41,0V20.07h2.54l0,6.49Z"/></svg>