<svg id="Solid" xmlns="http://www.w3.org/2000/svg" viewBox="0 0 82 75.79"><title>hand_heart</title><path d="M44.61,22.68c-2.45,4.25-13,13.6-16.61,16.08-3.58-2.48-14.16-11.83-16.61-16.08a9.12,9.12,0,0,1-1.51-4.84,8.46,8.46,0,0,1,8.44-8.45,9,9,0,0,1,8,4.93,1.94,1.94,0,0,0,3.46,0,9,9,0,0,1,7.94-4.93,8.46,8.46,0,0,1,8.45,8.45,9.12,9.12,0,0,1-1.51,4.84M37.67,5.51A12.91,12.91,0,0,0,28,10a12.92,12.92,0,0,0-9.68-4.48A12.34,12.34,0,0,0,6,17.84a13.17,13.17,0,0,0,2,6.77c3,5.19,16,16.64,19.12,18.17a2,2,0,0,0,1.7,0C32,41.25,45,29.8,48,24.61a13.17,13.17,0,0,0,2-6.77A12.34,12.34,0,0,0,37.67,5.51" transform="translate(-4 -5.51)"/><path d="M33.27,24.86a1.94,1.94,0,0,0-2.68.58,3.11,3.11,0,0,1-5.2.06,1.94,1.94,0,1,0-3.21,2.17,7,7,0,0,0,11.67-.13,1.94,1.94,0,0,0-.58-2.68" transform="translate(-4 -5.51)"/><path d="M84,54.19H73.55L73,53.31a17.62,17.62,0,0,0-4.73-5.49C68.08,47.69,64,44.7,60,44.7H37.21a2,2,0,0,0-1.82,2.95c4.62,9.24,9.69,10,15.37,10h2.37c-.7,1.72-2.37,3.82-6.36,3.82l-2.28,0a18.19,18.19,0,0,1-7.91-2.52c-2.9-2.28-6.57-5.26-10.12-8.14-2.46-2-4.87-4-7-5.62C13,40,6.91,43,4.6,45.3a2,2,0,0,0,0,2.87L33.06,76.64c3,3,11.65,4.4,13.35,4.64l.28,0H84a2,2,0,0,0,2-2v-23A2,2,0,0,0,84,54.19Zm-48,19.57L9.19,47c1.68-.8,4.48-1.31,7.77,1.31C19,50,21.45,51.94,23.9,53.93c3.56,2.89,7.25,5.88,10.17,8.18a21.8,21.8,0,0,0,10.4,3.39l2.28,0c8.33,0,10.81-6.44,11-9.84a2,2,0,0,0-2-2.12H50.76c-4.12,0-7.06-.37-10-4.8H60c2.21,0,5,1.71,5.78,2.3a13.67,13.67,0,0,1,3.74,4.42c.26.42.55.86.86,1.34v20.4H46.84C43.17,76.69,37.45,75.28,35.93,73.76Zm46,3.47H74.48v-19h7.45Z" transform="translate(-4 -5.51)"/></svg>